<svg xmlns="http://www.w3.org/2000/svg" width="300" height="250" viewBox="0 0 20 20"><path fill="#FFF" fill-opacity=".5" d="M9.9 5C6.8 5 4 6.4 2.2 8.7l1.1 1.1c1.6-2 4-3.2 6.7-3.2s5.1 1.3 6.7 3.2l1.1-1.1C15.8 6.4 13 5 9.9 5z"><animate id="d" attributeName="fill-opacity" dur="500ms" values="1;1;1" calcMode="linear" begin="a.end+0.05s"/></path><path fill="#FFF" fill-opacity=".7" d="M9.9 8c-2.3 0-4.3 1.1-5.6 2.8l1.1 1.1c1-1.4 2.6-2.4 4.5-2.4s3.5.9 4.5 2.4l1.1-1.1C14.2 9.1 12.2 8 9.9 8z"><animate id="a" attributeName="fill-opacity" dur="500ms" values="1;1;1" calcMode="linear" begin="b.end+0.05s"/></path><path fill="#FFF" fill-opacity=".7" d="M9.9 11c-1.5 0-2.7.8-3.4 2l1.1 1.1c.4-.9 1.3-1.6 2.3-1.6s2 .7 2.3 1.6l1.1-1.1c-.7-1.2-1.9-2-3.4-2z"><animate id="b" attributeName="fill-opacity" dur="500ms" values="1;1;1" calcMode="linear" begin="c.end+0.05s"/></path><circle fill="#FFF" fill-opacity=".7" cx="9.9" cy="15.3" r="1"><animate id="c" attributeName="fill-opacity" dur="500ms" values="1;1;1" calcMode="linear" begin="0s;d.end+0.05s"/></circle></svg>